<?xml version="1.0" encoding="UTF-8"?>
<!DOCTYPE svg PUBLIC "-//W3C//DTD SVG 1.1//EN" "http://www.w3.org/Graphics/SVG/1.1/DTD/svg11.dtd">
<!-- Creator: CorelDRAW X7 -->
<svg xmlns="http://www.w3.org/2000/svg" xml:space="preserve" width="2.348mm" height="2.0873mm" version="1.1" style="shape-rendering:geometricPrecision; text-rendering:geometricPrecision; image-rendering:optimizeQuality; fill-rule:evenodd; clip-rule:evenodd"
viewBox="0 0 228 202"
 xmlns:xlink="http://www.w3.org/1999/xlink">
 <defs>
  <style type="text/css">
   <![CDATA[
    .fil1 {fill:none}
    .fil0 {fill:#1F1A17}
   ]]>
  </style>
 </defs>
 <g id="Layer_x0020_1">
  <metadata id="CorelCorpID_0Corel-Layer"/>
  <g id="Layer_x0020_1_0">
   <path class="fil0" d="M123 0l69 147 -13 0c-22,-38 -49,-78 -72,-117 1,-1 15,-31 16,-30z"/>
   <path class="fil0" d="M38 202l-38 0 107 -154 7 14 -46 88 0 0c-14,23 -16,29 -30,52z"/>
   <polygon class="fil0" points="69,152 75,152 78,175 82,152 88,152 81,185 75,185 "/>
   <path class="fil0" d="M89 152l6 0 0 33 -6 0 0 -33zm6 27l9 0 0 6 -9 0 0 -6zm0 -13l8 0 0 5 -8 0 0 -5zm0 -14l9 0 0 5 -9 0 0 -5z"/>
   <path class="fil0" d="M111 170l7 -18 6 0 -13 27 0 -9zm-4 -18l5 0 0 33 -5 0 0 -33zm8 20l3 -7 7 20 -6 0 -4 -13z"/>
   <path class="fil0" d="M130 155l5 0 0 30 -5 0 0 -30zm-6 -3l17 0 0 5 -17 0 0 -5z"/>
   <path class="fil0" d="M151 185c-2,0 -3,0 -5,-1 -1,0 -2,-1 -3,-2 0,-2 0,-3 0,-5l0 -18c0,-1 0,-3 0,-4 1,-1 2,-2 3,-2 2,-1 3,-1 5,-1 2,0 3,0 4,1 2,0 3,1 3,2 1,1 1,3 1,4l0 18c0,2 0,3 -1,5 0,1 -1,2 -3,2 -1,1 -2,1 -4,1zm0 -6c0,0 1,0 1,0 1,0 1,0 1,-1 0,0 0,-1 0,-1l0 -17c0,-1 0,-1 0,-1 0,-1 0,-1 -1,-1 0,-1 -1,-1 -1,-1 -1,0 -1,0 -2,1 0,0 0,0 -1,1 0,0 0,0 0,1l0 17c0,0 0,1 0,1 1,1 1,1 1,1 1,0 1,0 2,0z"/>
   <path class="fil0" d="M166 166l6 0c0,0 0,-1 1,-1 0,0 1,0 1,-1 0,0 0,0 0,-1l0 -3c0,-1 0,-1 0,-1 0,-1 -1,-1 -1,-1 -1,-1 -1,-1 -1,-1l-6 0 0 -5 5 0c2,0 4,0 5,1 1,0 2,1 3,2 0,1 1,3 1,4l0 4c0,2 -1,3 -1,4 -1,2 -2,2 -3,3 -1,1 -3,1 -5,1l-5 0 0 -5zm-3 -14l6 0 0 33 -6 0 0 -33zm7 18l5 -1 6 16 -6 0 -5 -15z"/>
   <polygon class="fil0" points="189,185 184,185 184,152 189,152 "/>
   <path class="fil0" d="M200 185c-1,0 -3,0 -4,-1 -1,-1 -2,-2 -3,-3 0,-1 -1,-2 -1,-4l0 -25 6 0 0 25c0,1 0,1 1,2 0,0 1,0 1,0 1,0 1,0 2,0 0,-1 1,-1 1,-2l0 -25 5 0 0 25c0,2 0,3 -1,4 -1,1 -1,2 -3,3 -1,1 -2,1 -4,1z"/>
   <path class="fil0" d="M219 185c-1,0 -3,0 -4,-1 -1,-1 -2,-2 -3,-3 0,-1 -1,-2 -1,-4l0 -2 6 0 0 2c0,1 0,1 1,2 0,0 1,0 1,0 1,0 2,0 2,0 1,-1 1,-1 1,-2l0 -3c0,0 0,-1 -1,-1 0,-1 0,-1 -1,-1 0,-1 -1,-1 -2,-2 0,0 0,0 0,0 0,0 0,0 0,0l-1 0c-1,-1 -2,-1 -3,-2 -1,-1 -1,-2 -2,-3 0,-1 -1,-2 -1,-4l0 -1c0,-2 1,-4 1,-5 1,-1 2,-2 3,-2 1,-1 3,-1 4,-1 2,0 4,0 5,1 1,0 2,1 2,2 1,1 1,3 1,5l0 1 -5 1 0 -2c0,-1 0,-2 -1,-2 0,-1 -1,-1 -2,-1 0,0 -1,0 -1,1 -1,0 -1,1 -1,1l0 3c0,0 0,1 0,1 1,1 1,1 2,1 0,1 1,1 2,2 0,0 0,0 0,0 0,0 0,0 1,0 0,0 0,0 0,0 0,0 0,0 0,0 1,1 2,1 3,2 1,1 1,1 2,2 0,1 1,3 1,4l0 3c0,2 -1,3 -1,4 -1,1 -2,2 -3,3 -1,1 -3,1 -5,1z"/>
   <polygon class="fil1" points="121,36 160,102 198,169 122,169 44,169 83,102 "/>
  </g>
 </g>
</svg>
