<?xml version="1.0" encoding="iso-8859-1"?>
<!DOCTYPE svg PUBLIC "-//W3C//DTD SVG 1.0//EN" "http://www.w3.org/TR/2001/REC-SVG-20010904/DTD/svg10.dtd">
<!-- Creator: CorelDRAW -->
<svg xmlns="http://www.w3.org/2000/svg" xmlns:odm="http://product.corel.com/CGS/11/cddns/" xmlns:corel-charset="http://product.corel.com/CGS/11/cddns/" xml:space="preserve" width="8.5in" height="11in" style="shape-rendering:geometricPrecision; text-rendering:geometricPrecision; image-rendering:optimizeQuality; fill-rule:evenodd"
     viewBox="0 0 8500 11000">
 <defs>
  <style type="text/css">
   <![CDATA[
    .fil1 {fill:none}
    .fil0 {fill:#1F1A17}
   ]]>
  </style>
 </defs>
 <g id="Layer_x0020_1">
  <path class="fil0" d="M4304 4944l301 643 -54 2c-99,-168 -218,-343 -316,-512 3,-6 66,-137 69,-133z"/>
  <path class="fil0" d="M3934 5831l-169 -2 471 -675 30 60 -203 386 0 0c-60,104 -69,127 -129,231z"/>
  <path class="fil0" d="M4069 5610l26 0 14 100 14 -100 26 0 -27 144 -26 0 -27 -144z"/>
  <path class="fil0" d="M4157 5610l25 0 0 144 -25 0 0 -144zm11 120l53 0 0 24 -53 0 0 -24zm0 -59l48 0 0 23 -48 0 0 -23zm0 -61l53 0 0 24 -53 0 0 -24z"/>
  <path class="fil0" d="M4253 5688l28 -78 28 0 -56 121 0 -43zm-19 -78l24 0 0 144 -24 0 0 -144zm28 66l17 -15 34 93 -27 0 -24 -78z"/>
  <path class="fil0" d="M4334 5622l24 0 0 132 -24 0 0 -132zm-24 -12l72 0 0 24 -72 0 0 -24z"/>
  <path class="fil0" d="M4426 5755c-7,0 -14,-1 -19,-4 -6,-2 -10,-6 -13,-11 -3,-5 -4,-11 -4,-18l0 -79c0,-7 1,-14 4,-19 3,-5 7,-8 13,-11 5,-3 12,-4 19,-4 8,0 15,1 20,4 6,3 10,6 13,11 3,5 4,12 4,19l0 79c0,7 -1,13 -4,18 -3,5 -7,9 -13,11 -5,3 -12,4 -20,4zm0 -24c3,0 5,-1 7,-2 2,-1 3,-2 4,-4 1,-2 1,-4 1,-7l0 -72c0,-3 0,-5 -1,-7 -1,-2 -2,-3 -4,-4 -2,-1 -4,-2 -7,-2 -2,0 -4,1 -6,2 -2,1 -3,2 -4,4 -1,2 -1,4 -1,7l0 72c0,3 0,5 1,7 1,2 2,3 4,4 2,1 4,2 6,2z"/>
  <path class="fil0" d="M4492 5670l26 0c2,0 3,-1 5,-1 2,-1 3,-2 3,-4 1,-1 2,-3 2,-5l0 -16c0,-2 -1,-4 -2,-5 0,-2 -1,-3 -3,-4 -2,-1 -3,-1 -5,-1l-26 0 0 -24 24 0c8,0 14,2 20,4 5,3 10,6 12,11 3,5 5,11 5,18l0 17c0,7 -2,13 -5,18 -2,5 -7,9 -12,11 -6,3 -12,4 -20,4l-24 0 0 -23zm-11 -60l24 0 0 144 -24 0 0 -144zm31 79l22 -5 23 70 -26 0 -19 -65z"/>
  <path class="fil0" d="M4595 5754l-25 0 0 -144 25 0 0 144z"/>
  <path class="fil0" d="M4643 5755c-7,0 -13,-1 -19,-4 -5,-3 -9,-7 -11,-12 -3,-6 -4,-12 -4,-20l0 -109 24 0 0 110c0,3 1,6 3,8 1,2 4,3 7,3 3,0 5,-1 7,-3 2,-2 3,-5 3,-8l0 -110 24 0 0 109c0,8 -1,14 -4,20 -3,5 -7,9 -12,12 -5,3 -11,4 -18,4z"/>
  <path class="fil0" d="M4727 5755c-7,0 -14,-1 -19,-4 -5,-3 -10,-7 -12,-12 -3,-5 -5,-12 -5,-19l0 -8 25 0 0 8c0,3 1,6 3,8 2,2 5,3 8,3 4,0 6,-1 8,-3 2,-2 3,-4 3,-8l0 -13c0,-2 0,-5 -2,-6 -1,-2 -3,-4 -6,-5 -2,-2 -5,-4 -9,-6 0,0 -1,0 -1,0 0,0 0,0 -1,0l-1 -1c-5,-3 -10,-5 -14,-8 -3,-3 -6,-7 -9,-12 -2,-5 -4,-11 -4,-18l0 -7c0,-7 2,-14 5,-19 2,-5 6,-9 12,-12 5,-3 11,-4 19,-4 7,0 14,1 19,4 5,3 9,7 12,12 3,5 4,12 4,19l0 8 -24 1 0 -9c0,-3 -1,-6 -3,-8 -2,-2 -5,-3 -8,-3 -4,0 -6,1 -8,3 -2,1 -3,4 -3,7l0 10c0,3 1,5 2,7 1,2 3,3 5,5 2,1 5,3 9,5 1,0 2,0 2,1 1,0 2,1 3,1 0,0 0,0 0,0 0,0 0,0 0,0 6,3 10,6 14,8 3,3 6,6 8,11 3,4 4,10 4,17l0 12c0,7 -2,14 -4,19 -3,5 -7,9 -13,12 -5,3 -11,4 -19,4z"/>
  <path class="fil1" d="M4297 5100l168 292 170 292 -337 0 -338 0 169 -291 168 -293z"/>
 </g>
</svg>
