<?xml version="1.0" encoding="iso-8859-1"?>
<!DOCTYPE svg PUBLIC "-//W3C//DTD SVG 1.0//EN" "http://www.w3.org/TR/2001/REC-SVG-20010904/DTD/svg10.dtd">
<!-- Creator: CorelDRAW -->
<svg xmlns="http://www.w3.org/2000/svg" xmlns:odm="http://product.corel.com/CGS/11/cddns/" xmlns:corel-charset="http://product.corel.com/CGS/11/cddns/" xml:space="preserve" width="215.9mm" height="279.4mm" style="shape-rendering:geometricPrecision; text-rendering:geometricPrecision; image-rendering:optimizeQuality; fill-rule:evenodd"
     viewBox="0 0 216 280">
 <defs>
  <style type="text/css">
   <![CDATA[
    .fil1 {fill:none}
    .fil0 {fill:#1F1A17}
   ]]>
  </style>
 </defs>
 <g id="Layer_x0020_1">
  <path class="fil0" d="M109 40l56 120 -10 1c-18,-32 -41,-65 -59,-96 1,-1 12,-26 13,-25z"/>
  <path class="fil0" d="M40 206l-32 0 88 -127 6 11 -38 73 0 0c-11,19 -13,23 -24,43z"/>
  <path class="fil0" d="M65 165l5 0 2 18 3 -18 5 0 -5 27 -5 0 -5 -27z"/>
  <path class="fil0" d="M81 165l5 0 0 27 -5 0 0 -27zm5 22l7 0 0 5 -7 0 0 -5zm0 -11l6 0 0 4 -6 0 0 -4zm0 -11l7 0 0 4 -7 0 0 -4z"/>
  <path class="fil0" d="M99 179l6 -14 5 0 -11 22 0 -8zm-3 -14l4 0 0 27 -4 0 0 -27zm6 16l3 -6 6 17 -5 0 -4 -11z"/>
  <path class="fil0" d="M115 167l4 0 0 25 -4 0 0 -25zm-5 -2l14 0 0 4 -14 0 0 -4z"/>
  <path class="fil0" d="M132 192c-2,0 -3,0 -4,-1 -1,0 -2,-1 -2,-2 -1,-1 -1,-2 -1,-3l0 -15c0,-2 0,-3 1,-4 0,-1 1,-1 2,-2 1,0 2,-1 4,-1 1,0 3,1 4,1 1,1 1,1 2,2 1,1 1,2 1,4l0 15c0,1 0,2 -1,3 -1,1 -1,2 -2,2 -1,1 -3,1 -4,1zm0 -5c0,0 1,0 1,0 0,0 1,-1 1,-1 0,0 0,-1 0,-1l0 -14c0,0 0,-1 0,-1 0,0 -1,-1 -1,-1 0,0 -1,0 -1,0 -1,0 -1,0 -1,0 -1,0 -1,1 -1,1 0,0 0,1 0,1l0 14c0,0 0,1 0,1 0,0 0,1 1,1 0,0 0,0 1,0z"/>
  <path class="fil0" d="M144 176l5 0c0,0 1,0 1,0 0,-1 1,-1 1,-1 0,0 0,-1 0,-1l0 -3c0,0 0,-1 0,-1 0,0 -1,-1 -1,-1 0,0 -1,0 -1,0l-5 0 0 -4 5 0c1,0 2,0 3,0 1,1 2,1 3,2 0,1 1,2 1,4l0 3c0,1 -1,2 -1,3 -1,1 -2,2 -3,2 -1,1 -2,1 -3,1l-5 0 0 -4zm-2 -11l5 0 0 27 -5 0 0 -27zm6 14l4 -1 4 14 -5 0 -3 -13z"/>
  <path class="fil0" d="M163 192l-4 0 0 -27 4 0 0 27z"/>
  <path class="fil0" d="M172 192c-1,0 -2,0 -3,-1 -1,-1 -2,-1 -2,-2 -1,-1 -1,-3 -1,-4l0 -20 5 0 0 20c0,1 0,1 0,2 0,0 1,0 1,0 1,0 1,0 2,0 0,-1 0,-1 0,-2l0 -20 5 0 0 20c0,1 0,3 -1,4 -1,1 -1,1 -2,2 -1,1 -2,1 -4,1z"/>
  <path class="fil0" d="M188 192c-1,0 -2,0 -3,-1 -1,-1 -2,-1 -3,-2 0,-1 -1,-3 -1,-4l0 -1 5 0 0 1c0,1 0,1 1,2 0,0 1,0 1,0 1,0 1,0 2,0 0,-1 0,-1 0,-2l0 -2c0,-1 0,-1 0,-1 0,-1 -1,-1 -1,-1 -1,-1 -1,-1 -2,-1 0,0 0,0 0,0 0,0 0,0 0,0l-1 -1c0,0 -1,-1 -2,-1 -1,-1 -1,-1 -2,-2 0,-1 -1,-2 -1,-4l0 -1c0,-1 1,-3 1,-4 1,-1 1,-1 3,-2 1,0 2,-1 3,-1 1,0 3,1 4,1 1,1 1,1 2,2 1,1 1,3 1,4l0 1 -5 1 0 -2c0,-1 0,-1 0,-2 -1,0 -1,0 -2,0 -1,0 -1,0 -1,0 -1,1 -1,1 -1,2l0 2c0,0 0,1 0,1 1,0 1,1 1,1 1,0 1,0 2,1 0,0 0,0 0,0 1,0 1,0 1,0 0,0 0,0 0,0 0,0 0,0 0,0 1,1 2,1 3,2 0,0 1,1 1,2 1,0 1,2 1,3l0 2c0,1 0,3 -1,4 0,1 -1,1 -2,2 -1,1 -2,1 -4,1z"/>
  <path class="fil1" d="M108 69l31 55 32 54 -63 0 -63 0 31 -54 32 -55z"/>
 </g>
</svg>
